<svg width="20" height="22" viewBox="0 0 20 22" fill="none" xmlns="http://www.w3.org/2000/svg">
<path d="M17 2H15V1C15 0.45 14.55 0 14 0C13.45 0 13 0.45 13 1V2H7V1C7 0.45 6.55 0 6 0C5.45 0 5 0.45 5 1V2H3C1.35 2 0 3.35 0 5V19C0 20.65 1.35 22 3 22H17C18.65 22 20 20.65 20 19V5C20 3.35 18.65 2 17 2ZM3 4H5V5C5 5.55 5.45 6 6 6C6.55 6 7 5.55 7 5V4H13V5C13 5.55 13.45 6 14 6C14.55 6 15 5.55 15 5V4H17C17.55 4 18 4.45 18 5V8H2V5C2 4.45 2.45 4 3 4ZM17 20H3C2.45 20 2 19.55 2 19V10H18V19C18 19.55 17.55 20 17 20Z" fill="#283E4E"/>
</svg>
