<svg width="25" height="26" viewBox="0 0 25 26" fill="none" xmlns="http://www.w3.org/2000/svg">
<path d="M9.2143 13.9644C9.2143 13.5107 8.84654 13.1429 8.39287 13.1429H6.75002C6.29636 13.1429 5.92859 13.5107 5.92859 13.9644C5.92859 14.418 6.29635 14.7858 6.75002 14.7858H8.39287C8.84654 14.7858 9.2143 14.418 9.2143 13.9644Z" fill="#283E4E"/>
<path d="M14.1429 13.9644C14.1429 13.5107 13.7751 13.1429 13.3214 13.1429H11.6786C11.2249 13.1429 10.8572 13.5107 10.8572 13.9644C10.8572 14.418 11.2249 14.7858 11.6786 14.7858H13.3214C13.7751 14.7858 14.1429 14.418 14.1429 13.9644Z" fill="#283E4E"/>
<path d="M18.25 13.1429C18.7037 13.1429 19.0714 13.5107 19.0714 13.9644C19.0714 14.418 18.7037 14.7858 18.25 14.7858H16.6072C16.1535 14.7858 15.7857 14.418 15.7857 13.9644C15.7857 13.5107 16.1535 13.1429 16.6072 13.1429H18.25Z" fill="#283E4E"/>
<path d="M9.2143 18.8929C9.2143 18.4393 8.84654 18.0715 8.39287 18.0715H6.75002C6.29636 18.0715 5.92859 18.4393 5.92859 18.8929C5.92859 19.3466 6.29635 19.7144 6.75002 19.7144H8.39287C8.84654 19.7144 9.2143 19.3466 9.2143 18.8929Z" fill="#283E4E"/>
<path d="M13.3214 18.0715C13.7751 18.0715 14.1429 18.4393 14.1429 18.8929C14.1429 19.3466 13.7751 19.7144 13.3214 19.7144H11.6786C11.2249 19.7144 10.8572 19.3466 10.8572 18.8929C10.8572 18.4393 11.2249 18.0715 11.6786 18.0715H13.3214Z" fill="#283E4E"/>
<path fill-rule="evenodd" clip-rule="evenodd" d="M6.75002 0C6.29636 0 5.92859 0.367766 5.92859 0.821429V1.46436H2.64286C1.18325 1.46436 0 2.6476 0 4.10721V23.0001C0 24.4597 1.18325 25.6429 2.64286 25.6429H22.3571C23.8168 25.6429 25 24.4597 25 23.0001V4.10721C25 2.6476 23.8168 1.46436 22.3571 1.46436H19.0714V0.821429C19.0714 0.367766 18.7037 0 18.25 0C17.7964 0 17.4286 0.367766 17.4286 0.821429V1.46436H7.57145V0.821429C7.57145 0.367766 7.20368 0 6.75002 0ZM2.64286 3.46436H5.92859V4.10714C5.92859 4.56081 6.29636 4.92857 6.75002 4.92857C7.20368 4.92857 7.57145 4.56081 7.57145 4.10714V3.46436H17.4286V4.10714C17.4286 4.56081 17.7964 4.92857 18.25 4.92857C18.7037 4.92857 19.0714 4.56081 19.0714 4.10714V3.46436H22.3571C22.7122 3.46436 23 3.75217 23 4.10721V7.21436H2V4.10721C2 3.75217 2.28782 3.46436 2.64286 3.46436ZM23 9.21436H2V23.0001C2 23.3551 2.28782 23.6429 2.64286 23.6429H22.3571C22.7122 23.6429 23 23.3551 23 23.0001V9.21436Z" fill="#283E4E"/>
</svg>
