<svg width="24" height="24" viewBox="0 0 24 24" fill="none" xmlns="http://www.w3.org/2000/svg">
<path fill-rule="evenodd" clip-rule="evenodd" d="M15.96 11.35L10.44 6.18C10.1 5.86 9.57 5.88 9.25 6.22C8.93 6.56 8.95 7.09 9.29 7.41L14.15 11.97L9.28 16.53C8.94 16.85 8.92 17.38 9.24 17.72C9.56 18.06 10.09 18.08 10.43 17.76L15.95 12.59C16.12 12.43 16.22 12.21 16.22 11.97C16.22 11.73 16.13 11.51 15.96 11.35ZM11.99 0C5.37 0 0 5.37 0 11.99C0 18.61 5.37 23.98 11.99 23.98C18.61 23.98 23.98 18.61 23.98 11.99C23.98 5.37 18.61 0 11.99 0ZM11.99 1.69C13.38 1.69 14.73 1.96 16 2.5C17.23 3.02 18.33 3.76 19.28 4.71C20.23 5.66 20.97 6.76 21.49 7.99C22.03 9.26 22.3 10.61 22.3 12C22.3 13.39 22.03 14.74 21.49 16.01C20.97 17.24 20.23 18.34 19.28 19.29C18.33 20.24 17.23 20.98 16 21.5C14.73 22.04 13.38 22.31 11.99 22.31C10.6 22.31 9.25 22.04 7.98 21.5C6.75 20.98 5.65 20.24 4.7 19.29C3.76 18.33 3.01 17.23 2.5 16C1.96 14.73 1.69 13.38 1.69 11.99C1.69 10.6 1.96 9.25 2.5 7.98C3.01 6.75 3.76 5.65 4.7 4.7C5.65 3.76 6.75 3.01 7.98 2.5C9.25 1.96 10.6 1.69 11.99 1.69Z" fill="#283E4E"/>
</svg>
