<svg width="24" height="24" viewBox="0 0 24 24" fill="none" xmlns="http://www.w3.org/2000/svg">
<path d="M12 16C9.79 16 8 14.21 8 12C8 9.79 9.79 8 12 8C14.21 8 16 9.79 16 12C16 14.21 14.21 16 12 16ZM12 10C10.9 10 10 10.9 10 12C10 13.1 10.9 14 12 14C13.1 14 14 13.1 14 12C14 10.9 13.1 10 12 10Z" fill="#283E4E"/>
<path d="M12.08 24C10.43 24 9.08 22.65 9.08 21C9.07 20.67 8.91 20.43 8.66 20.34C8.36 20.21 8.07 20.26 7.88 20.45C6.66 21.67 4.76 21.67 3.59 20.5C3.58 20.49 3.58 20.49 3.57 20.48C3.02 19.92 2.71 19.17 2.71 18.38C2.71 17.58 3.02 16.83 3.59 16.26C3.83 16.01 3.88 15.73 3.77 15.49C3.66 15.24 3.43 15.09 3.17 15.09H3C1.35 15.09 0 13.74 0 12.09C0 10.44 1.35 9.09 3 9.09C3.33 9.08 3.57 8.92 3.66 8.66C3.79 8.36 3.74 8.08 3.55 7.89C2.33 6.66 2.33 4.75 3.5 3.58C4.67 2.41 6.57 2.41 7.74 3.58C7.99 3.82 8.27 3.87 8.51 3.76C8.57 3.73 8.64 3.71 8.71 3.7C8.89 3.58 9 3.38 9 3.17V3C9 1.35 10.35 0 12 0C13.65 0 15 1.35 15 3C15 3.35 15.16 3.58 15.39 3.68C15.64 3.79 15.93 3.74 16.12 3.55C16.74 2.93 17.49 2.62 18.29 2.62C19.08 2.62 19.83 2.93 20.4 3.49L20.41 3.5C21.58 4.67 21.58 6.57 20.41 7.74C20.17 7.99 20.12 8.27 20.23 8.51C20.26 8.57 20.28 8.64 20.29 8.71C20.42 8.89 20.62 9 20.83 9H21C22.65 9 24 10.35 24 12C24 13.65 22.65 15 21 15C20.66 15 20.42 15.16 20.32 15.39V15.4C20.21 15.64 20.26 15.93 20.45 16.12C21.67 17.34 21.67 19.24 20.5 20.41C19.33 21.58 17.43 21.58 16.25 20.41C16 20.17 15.72 20.12 15.48 20.23C15.23 20.34 15.08 20.57 15.08 20.83V21C15.08 22.65 13.73 24 12.08 24ZM8.35 18.26C8.71 18.26 9.07 18.33 9.41 18.48C10.38 18.83 11.06 19.79 11.09 20.88C11.09 20.89 11.09 20.99 11.09 20.99C11.09 21.54 11.54 21.99 12.09 21.99C12.64 21.99 13.09 21.54 13.09 20.99V20.82C13.09 19.76 13.73 18.81 14.7 18.39C15.68 17.95 16.83 18.16 17.61 18.92C17.87 19.18 18.12 19.28 18.39 19.28C18.66 19.28 18.91 19.18 19.1 18.99C19.29 18.8 19.39 18.55 19.39 18.28C19.39 18.01 19.29 17.76 19.1 17.57C18.27 16.72 18.06 15.58 18.5 14.58C18.92 13.61 19.87 12.98 20.92 12.98C21.57 12.98 22.01 12.53 22.01 11.98C22.01 11.43 21.56 10.98 21.01 10.98H20.84C19.78 10.98 18.83 10.35 18.41 9.37C18.37 9.29 18.35 9.2 18.34 9.11C18.01 8.16 18.23 7.11 18.95 6.38C19.4 5.93 19.41 5.3 19.03 4.91L19.02 4.9C18.83 4.71 18.58 4.61 18.31 4.61C18.04 4.61 17.79 4.71 17.6 4.9C16.75 5.73 15.6 5.94 14.61 5.5C13.63 5.1 13 4.15 13 3.09C13 2.45 12.55 2 12 2C11.45 2 11 2.45 11 3V3.17C11 4.23 10.37 5.18 9.39 5.6C9.31 5.64 9.22 5.66 9.13 5.67C8.18 6 7.13 5.78 6.4 5.06C5.94 4.61 5.31 4.61 4.92 5C4.53 5.39 4.53 6.03 4.92 6.42C5.75 7.27 5.96 8.41 5.52 9.41C5.17 10.38 4.21 11.06 3.12 11.09C3.11 11.09 3.01 11.09 3.01 11.09C2.46 11.09 2.01 11.54 2.01 12.09C2.01 12.64 2.46 13.09 3.01 13.09H3.18C4.24 13.09 5.19 13.72 5.61 14.7C6.05 15.69 5.84 16.84 5.08 17.61C4.82 17.87 4.72 18.12 4.72 18.39C4.72 18.66 4.82 18.91 5.01 19.1L5.02 19.11C5.41 19.49 6.04 19.49 6.43 19.1C6.97 18.54 7.66 18.26 8.35 18.26Z" fill="#283E4E"/>
</svg>
